<?xml version="1.0" encoding="UTF-8"?>
<svg xmlns="http://www.w3.org/2000/svg" xmlns:xlink="http://www.w3.org/1999/xlink" width="16pt" height="16pt" viewBox="0 0 16 16" version="1.1">
<g id="surface4214027">
<path style=" stroke:none;fill-rule:nonzero;fill:rgb(100%,100%,100%);fill-opacity:1;" d="M 10.933594 6 L 9.332031 6 L 9.332031 4.667969 C 9.332031 3.980469 9.390625 3.546875 10.375 3.546875 L 10.953125 3.546875 C 11.320312 3.546875 11.621094 3.246094 11.621094 2.878906 L 11.621094 2.042969 C 11.621094 1.695312 11.351562 1.394531 11.003906 1.371094 C 10.601562 1.34375 10.199219 1.332031 9.796875 1.332031 C 7.988281 1.332031 6.667969 2.4375 6.667969 4.464844 L 6.667969 6 L 5.332031 6 C 4.964844 6 4.667969 6.296875 4.667969 6.667969 L 4.667969 8 C 4.667969 8.367188 4.964844 8.667969 5.332031 8.667969 L 6.667969 8.664062 L 6.667969 14 C 6.667969 14.367188 6.964844 14.667969 7.332031 14.667969 L 8.667969 14.667969 C 9.035156 14.667969 9.332031 14.367188 9.332031 14 L 9.332031 8.664062 L 10.78125 8.664062 C 11.121094 8.664062 11.40625 8.410156 11.445312 8.074219 L 11.597656 6.742188 C 11.644531 6.347656 11.335938 6 10.933594 6 Z M 10.933594 6 "/>
</g>
</svg>
