<?xml version="1.0" encoding="UTF-8"?>
<svg xmlns="http://www.w3.org/2000/svg" xmlns:xlink="http://www.w3.org/1999/xlink" width="16pt" height="16pt" viewBox="0 0 16 16" version="1.1">
<g id="surface4448866">
<path style=" stroke:none;fill-rule:nonzero;fill:rgb(100%,100%,100%);fill-opacity:1;" d="M 8.363281 6.824219 L 8.363281 9.375 L 11.992188 9.375 C 11.519531 10.917969 10.230469 12.019531 8.363281 12.019531 C 6.140625 12.019531 4.339844 10.21875 4.339844 8 C 4.339844 5.78125 6.140625 3.980469 8.363281 3.980469 C 9.363281 3.980469 10.273438 4.34375 10.976562 4.949219 L 12.851562 3.070312 C 11.667969 1.992188 10.09375 1.332031 8.363281 1.332031 C 4.679688 1.332031 1.695312 4.316406 1.695312 8 C 1.695312 11.683594 4.679688 14.667969 8.363281 14.667969 C 13.960938 14.667969 15.195312 9.433594 14.648438 6.835938 Z M 8.363281 6.824219 "/>
</g>
</svg>
